<svg xmlns="http://www.w3.org/2000/svg" viewBox="0 0 760 393"><rect width="760" height="393" rx="196.5" ry="196.5" style="fill:#ffd200;stroke-width:0"/><path d="M217.6 216.7h-65.8v114h-33.3V56h104.1c55.8 0 92.9 30.9 92.9 80.4 0 39.1-23.4 66.6-60.8 76.6L332 330.8h-39.5l-75-114.1Zm-65.8-31.2h70.4c39.1 0 58.3-16.3 58.3-49.2s-19.2-49.1-58.3-49.1h-70.4v98.3ZM529.9 278.3h-74.1l-13 52.5h-96.5l89-274.9H552l89.5 274.9h-99.1l-12.5-52.5Zm-14.2-60.4-22-91.6h-1.3L481.6 173l-11.2 45h45.3Z" style="stroke-width:0"/></svg>
